<svg width="300" height="94" viewBox="0 0 300 94" fill="none" xmlns="http://www.w3.org/2000/svg">
<path d="M88.8163 29.6338H56.458V63.6421H88.8163V29.6338Z" fill="white"/>
<path d="M74.3858 40.0225H70.769V64.2092H74.3858V40.0225Z" fill="#836EF9"/>
<path d="M63.5352 44.769V48.3857H81.6187V44.769H63.5352Z" fill="#836EF9"/>
<path d="M67.4691 38.9079L64.9072 41.4697L77.7166 54.2791L80.2785 51.7172L67.4691 38.9079Z" fill="#836EF9"/>
<path d="M80.2787 41.4701L77.7168 38.9082L64.9074 51.7176L67.4693 54.2794L80.2787 41.4701Z" fill="#836EF9"/>
<path d="M74.3858 37.5361H70.769V55.6197H74.3858V37.5361Z" fill="#836EF9"/>
<path d="M72.5002 19C64.5587 19 45 38.5581 45 46.4998C45 54.4416 64.5587 74 72.5002 74C80.4416 74 100.001 54.4413 100.001 46.4998C100.001 38.5584 80.4419 19 72.5002 19ZM68.2147 62.2252C64.8659 61.3126 55.8623 45.5632 56.775 42.2144C57.6877 38.8654 73.437 29.8621 76.7858 30.7748C80.1347 31.6874 89.1383 47.4365 88.2257 50.7855C87.313 54.1344 71.5635 63.1379 68.2147 62.2252Z" fill="#836EF9"/>
<path d="M124.476 34.1406H129.685L137.354 56.0635L145.024 34.1406H150.233L139.446 64H135.263L124.476 34.1406ZM121.666 34.1406H126.854L127.798 55.5098V64H121.666V34.1406ZM147.854 34.1406H153.063V64H146.911V55.5098L147.854 34.1406ZM182.984 48.373V49.7881C182.984 52.0576 182.677 54.0947 182.062 55.8994C181.446 57.7041 180.578 59.2422 179.457 60.5137C178.336 61.7715 176.996 62.7354 175.438 63.4053C173.893 64.0752 172.177 64.4102 170.29 64.4102C168.417 64.4102 166.701 64.0752 165.143 63.4053C163.598 62.7354 162.258 61.7715 161.123 60.5137C159.988 59.2422 159.106 57.7041 158.478 55.8994C157.862 54.0947 157.555 52.0576 157.555 49.7881V48.373C157.555 46.0898 157.862 44.0527 158.478 42.2617C159.093 40.457 159.961 38.9189 161.082 37.6475C162.217 36.376 163.557 35.4053 165.102 34.7354C166.66 34.0654 168.376 33.7305 170.249 33.7305C172.136 33.7305 173.852 34.0654 175.396 34.7354C176.955 35.4053 178.295 36.376 179.416 37.6475C180.551 38.9189 181.426 40.457 182.041 42.2617C182.67 44.0527 182.984 46.0898 182.984 48.373ZM176.771 49.7881V48.332C176.771 46.7461 176.627 45.3516 176.34 44.1484C176.053 42.9453 175.629 41.9336 175.068 41.1133C174.508 40.293 173.824 39.6777 173.018 39.2676C172.211 38.8438 171.288 38.6318 170.249 38.6318C169.21 38.6318 168.287 38.8438 167.48 39.2676C166.688 39.6777 166.011 40.293 165.45 41.1133C164.903 41.9336 164.486 42.9453 164.199 44.1484C163.912 45.3516 163.769 46.7461 163.769 48.332V49.7881C163.769 51.3604 163.912 52.7549 164.199 53.9717C164.486 55.1748 164.91 56.1934 165.471 57.0273C166.031 57.8477 166.715 58.4697 167.521 58.8936C168.328 59.3174 169.251 59.5293 170.29 59.5293C171.329 59.5293 172.252 59.3174 173.059 58.8936C173.865 58.4697 174.542 57.8477 175.089 57.0273C175.636 56.1934 176.053 55.1748 176.34 53.9717C176.627 52.7549 176.771 51.3604 176.771 49.7881ZM211.716 34.1406V64H205.563L193.566 43.9844V64H187.414V34.1406H193.566L205.584 54.1768V34.1406H211.716Z" fill="#9784FF"/>
<path d="M223.61 34.1406V64H217.479V34.1406H223.61ZM238.54 64H232.039L232.08 59.2012H238.54C240.153 59.2012 241.514 58.8389 242.621 58.1143C243.729 57.376 244.562 56.3027 245.123 54.8945C245.697 53.4863 245.984 51.7842 245.984 49.7881V48.332C245.984 46.8008 245.82 45.4541 245.492 44.292C245.178 43.1299 244.706 42.1523 244.077 41.3594C243.448 40.5664 242.676 39.9717 241.76 39.5752C240.844 39.165 239.791 38.96 238.602 38.96H231.916V34.1406H238.602C240.598 34.1406 242.423 34.4824 244.077 35.166C245.745 35.8359 247.188 36.7998 248.404 38.0576C249.621 39.3154 250.558 40.8193 251.214 42.5693C251.884 44.3057 252.219 46.2402 252.219 48.373V49.7881C252.219 51.9072 251.884 53.8418 251.214 55.5918C250.558 57.3418 249.621 58.8457 248.404 60.1035C247.201 61.3477 245.759 62.3115 244.077 62.9951C242.409 63.665 240.563 64 238.54 64ZM235.525 34.1406V64H229.373V34.1406H235.525Z" fill="#836EF9"/>
</svg>
